<?xml version="1.0" encoding="UTF-8" standalone="no"?><!-- Generator: Gravit.io --><svg xmlns="http://www.w3.org/2000/svg" xmlns:xlink="http://www.w3.org/1999/xlink" style="isolation:isolate" viewBox="0 0 1000 1000" width="1000pt" height="1000pt"><defs><clipPath id="_clipPath_Jxi23r8N2OEtA6VfE1jh8p0CmVw7Jfjb"><rect width="1000" height="1000"/></clipPath></defs><g clip-path="url(#_clipPath_Jxi23r8N2OEtA6VfE1jh8p0CmVw7Jfjb)"><path d=" M 546.185 944.06 L 295.272 944.06 L 239.434 1000 L 39.97 806.048 L 182.78 663.136 C 241.986 604.338 329.469 584.534 408.172 612.096 L 439.511 623.12 L 632.749 623.12 C 666.537 623.12 693.997 650.478 693.997 684.368 C 693.997 684.879 693.997 685.287 693.997 685.798 C 692.159 719.382 663.985 745.514 630.299 744.8 L 514.336 744.8 C 501.269 744.8 490.653 755.416 490.653 768.482 C 490.653 781.549 501.269 792.165 514.336 792.165 L 630.299 792.165 C 689.097 792.369 737.687 746.535 740.851 687.839 C 740.851 687.839 740.851 686.818 740.851 686.41 L 848.035 565.751 C 870.697 539.517 909.896 535.74 937.151 557.074 C 963.998 579.328 967.776 619.139 945.522 646.088 C 945.216 646.497 944.909 646.905 944.501 647.211 L 730.133 892.203 C 701.551 924.767 660.208 943.345 616.926 943.244 L 546.185 944.06 Z  M 818.33 385.274 C 818.33 391.909 819.351 398.544 821.495 404.873 C 832.213 436.926 814.962 471.633 782.908 482.454 C 776.477 484.598 769.638 485.721 762.901 485.618 C 736.054 485.517 712.269 502.87 704.205 528.492 C 693.895 560.749 659.494 578.511 627.236 568.303 C 620.805 566.262 614.782 563.199 609.372 559.116 C 587.731 542.987 558.026 542.987 536.385 559.116 C 509.232 579.226 470.849 573.509 450.74 546.356 C 446.759 540.946 443.594 534.923 441.553 528.492 C 433.488 502.768 409.397 485.312 382.448 485.618 C 348.66 485.925 320.996 458.771 320.69 424.881 C 320.588 418.041 321.711 411.304 323.854 404.873 C 332.429 379.251 323.242 351.077 301.295 335.459 C 273.733 315.859 267.302 277.579 287.004 250.018 C 290.984 244.505 295.782 239.606 301.295 235.727 C 323.242 220.108 332.429 191.934 323.854 166.312 C 313.136 134.259 330.388 99.552 362.441 88.731 C 368.872 86.587 375.711 85.465 382.448 85.567 C 409.397 85.873 433.488 68.417 441.553 42.693 C 451.863 10.436 486.264 -7.326 518.521 2.882 C 524.952 4.923 530.975 7.986 536.385 12.069 C 558.026 28.198 587.731 28.198 609.372 12.069 C 636.526 -8.041 674.908 -2.324 695.018 24.829 C 698.999 30.239 702.163 36.262 704.205 42.693 C 712.269 68.417 736.36 85.873 763.309 85.567 C 797.098 85.26 824.761 112.414 825.067 146.304 C 825.17 153.144 824.047 159.881 821.903 166.312 C 813.328 191.934 822.515 220.108 844.463 235.727 C 872.024 255.326 878.455 293.606 858.754 321.168 C 854.773 326.68 849.975 331.58 844.463 335.459 C 828.13 346.79 818.432 365.368 818.33 385.274 Z  M 657.248 219.802 C 643.978 206.532 622.336 206.532 609.066 219.802 L 549.962 278.906 L 535.875 265.024 C 522.094 252.264 500.453 253.08 487.693 266.861 C 475.545 279.927 475.545 300.139 487.693 313.205 L 501.78 327.292 L 525.871 351.383 C 539.141 364.654 560.782 364.654 574.053 351.383 L 598.143 327.292 L 657.248 268.188 C 670.62 254.918 670.722 233.379 657.452 220.006 C 657.35 219.904 657.248 219.802 657.248 219.802 Z " fill="rgb(77,37,102)"/></g></svg>