<?xml version="1.0" encoding="UTF-8" standalone="no"?><!-- Generator: Gravit.io --><svg xmlns="http://www.w3.org/2000/svg" xmlns:xlink="http://www.w3.org/1999/xlink" style="isolation:isolate" viewBox="0 0 1000 1000" width="1000pt" height="1000pt"><defs><clipPath id="_clipPath_z2DkXOyI1kfbZ6W0MLVR580jVqVULUh9"><rect width="1000" height="1000"/></clipPath></defs><g clip-path="url(#_clipPath_z2DkXOyI1kfbZ6W0MLVR580jVqVULUh9)"><path d=" M 722.222 388.889 C 722.222 235.469 560.556 111.111 361.111 111.111 C 161.667 111.111 0 235.469 0 388.889 C 0 448.385 24.531 503.385 65.92 548.576 C 42.726 601.076 4.375 642.639 3.819 643.229 C -0.002 647.253 -1.058 653.167 1.132 658.266 C 3.323 663.364 8.34 666.668 13.889 666.667 C 77.396 666.667 130.087 645.399 167.934 623.299 C 223.837 650.625 289.965 666.667 361.111 666.667 C 560.556 666.667 722.222 542.309 722.222 388.889 Z  M 333.333 555.556 L 333.333 527.274 C 313.733 526.267 294.67 519.427 278.872 507.569 C 272.101 502.483 271.753 492.344 277.882 486.493 L 298.281 467.031 C 303.09 462.448 310.243 462.24 315.868 465.764 C 322.587 469.965 330.208 472.222 338.125 472.222 L 386.927 472.222 C 398.212 472.222 407.413 461.944 407.413 449.323 C 407.413 438.993 401.146 429.896 392.188 427.222 L 314.063 403.785 C 281.788 394.097 259.236 363.125 259.236 328.455 C 259.236 285.885 292.309 251.302 333.316 250.208 L 333.316 222.222 C 333.316 214.549 339.531 208.333 347.205 208.333 L 374.983 208.333 C 382.656 208.333 388.872 214.549 388.872 222.222 L 388.872 250.503 C 408.472 251.51 427.535 258.333 443.333 270.208 C 450.104 275.295 450.451 285.434 444.323 291.285 L 423.924 310.747 C 419.115 315.33 411.962 315.538 406.337 312.014 C 399.618 307.795 391.997 305.556 384.08 305.556 L 335.278 305.556 C 323.993 305.556 314.792 315.833 314.792 328.455 C 314.792 338.785 321.059 347.882 330.017 350.556 L 408.142 373.993 C 440.417 383.681 462.969 414.653 462.969 449.323 C 462.969 491.91 429.896 526.476 388.889 527.569 L 388.889 555.556 C 388.889 563.229 382.674 569.444 375 569.444 L 347.222 569.444 C 339.549 569.444 333.333 563.229 333.333 555.556 Z  M 934.045 770.816 C 975.469 725.625 1000 670.608 1000 611.111 C 1000 494.896 907.135 395.486 775.469 354.045 C 776.962 365.503 777.778 377.118 777.778 388.889 C 777.778 572.691 590.868 722.222 361.111 722.222 C 342.396 722.222 324.097 720.885 306.024 718.958 C 360.764 818.802 489.184 888.889 638.889 888.889 C 710.035 888.889 776.163 872.847 832.066 845.521 C 869.913 867.622 922.604 888.889 986.111 888.889 C 991.667 888.889 996.684 885.573 998.854 880.486 C 1001.059 875.382 1000 869.479 996.163 865.434 C 995.625 864.861 957.24 823.351 934.045 770.816 L 934.045 770.816 Z " fill="rgb(77,28,102)"/></g></svg>