<?xml version="1.0" encoding="UTF-8" standalone="no"?><!-- Generator: Gravit.io --><svg xmlns="http://www.w3.org/2000/svg" xmlns:xlink="http://www.w3.org/1999/xlink" style="isolation:isolate" viewBox="0 0 1000 1000" width="1000pt" height="1000pt"><defs><clipPath id="_clipPath_vIP9qz1HTrgfvJEV243vllfGxIsbvsMW"><rect width="1000" height="1000"/></clipPath></defs><g clip-path="url(#_clipPath_vIP9qz1HTrgfvJEV243vllfGxIsbvsMW)"><clipPath id="_clipPath_Qt4QW84J6gxxc8vbbYSaJlbegcYAJLjf"><rect x="0" y="0" width="1000" height="1000" transform="matrix(1,0,0,1,0,0)" fill="rgb(255,255,255)"/></clipPath><g clip-path="url(#_clipPath_Qt4QW84J6gxxc8vbbYSaJlbegcYAJLjf)"><g><g><circle vector-effect="non-scaling-stroke" cx="743.2987821223047" cy="690.493278766217" r="112.48273557802145" fill="rgb(255,255,255)"/><path d=" M 848.735 851.48 C 804.375 851.48 743.316 851.48 743.316 851.48 C 743.316 851.48 682.258 851.48 637.863 851.48 C 576.839 851.48 568.516 893.095 568.516 931.93 L 568.516 1000 L 743.316 1000 L 918.099 1000 L 918.099 931.93 C 918.099 893.095 909.776 851.48 848.735 851.48 Z " fill="rgb(255,255,255)"/><circle vector-effect="non-scaling-stroke" cx="338.025216876326" cy="359.1998867256802" r="115.9273335741151" fill="rgb(255,255,255)"/><path d=" M 592.069 719.589 L 518.228 719.589 L 518.228 608.068 C 518.228 568.044 509.643 525.135 446.714 525.135 C 400.972 525.135 338.06 525.135 338.06 525.135 C 338.06 525.135 275.166 525.135 229.407 525.135 C 166.477 525.135 157.892 568.044 157.892 608.068 L 157.892 719.624 L 37.349 719.624 L 37.349 774.335 L 614.188 774.335 C 603.522 757.934 595.898 739.452 592.069 719.589 Z " fill="rgb(255,255,255)"/><path d=" M 539.84 376.877 L 658.39 345.456 C 683.814 353.587 711.458 358.238 740.431 358.238 C 863.178 358.238 962.651 278.051 962.651 179.137 C 962.651 80.222 863.16 0 740.414 0 C 617.667 0 518.193 80.187 518.193 179.102 C 518.193 223.549 538.424 264.132 571.681 295.449 L 539.84 376.877 L 539.84 376.877 Z  M 613.908 116.032 L 866.937 116.032 L 866.937 146.684 L 613.908 146.684 L 613.908 116.032 L 613.908 116.032 Z  M 613.908 211.589 L 789.32 211.589 L 789.32 242.241 L 613.908 242.241 L 613.908 211.589 L 613.908 211.589 Z " fill="rgb(255,255,255)"/></g></g></g></g></svg>