<?xml version="1.0" encoding="UTF-8" standalone="no"?><!-- Generator: Gravit.io --><svg xmlns="http://www.w3.org/2000/svg" xmlns:xlink="http://www.w3.org/1999/xlink" style="isolation:isolate" viewBox="0 0 1000 1000.008" width="1000pt" height="1000.008pt"><path d=" M 399.009 9.834 C 204.864 47.726 48.415 203.784 10.133 397.344 C -62.135 762.587 267.365 1034.859 515.613 996.381 C 596.084 983.881 635.538 889.738 598.623 817.275 C 553.505 728.601 617.96 625.083 717.571 625.083 L 873.239 625.083 C 943.163 625.083 999.805 567.269 1000 497.541 C 999.023 189.721 718.939 -52.472 399.009 9.834 Z  M 187.481 625.083 C 152.909 625.083 124.979 597.153 124.979 562.582 C 124.979 528.011 152.909 500.08 187.481 500.08 C 222.052 500.08 249.982 528.011 249.982 562.582 C 249.982 597.153 222.052 625.083 187.481 625.083 Z  M 249.982 375.077 C 215.411 375.077 187.481 347.147 187.481 312.576 C 187.481 278.005 215.411 250.074 249.982 250.074 C 284.553 250.074 312.484 278.005 312.484 312.576 C 312.484 347.147 284.553 375.077 249.982 375.077 Z  M 499.988 250.074 C 465.417 250.074 437.487 222.144 437.487 187.573 C 437.487 153.002 465.417 125.071 499.988 125.071 C 534.559 125.071 562.49 153.002 562.49 187.573 C 562.49 222.144 534.559 250.074 499.988 250.074 Z  M 749.994 375.077 C 715.423 375.077 687.493 347.147 687.493 312.576 C 687.493 278.005 715.423 250.074 749.994 250.074 C 784.565 250.074 812.496 278.005 812.496 312.576 C 812.496 347.147 784.565 375.077 749.994 375.077 Z " fill="rgb(77,28,102)"/></svg>