<?xml version="1.0" encoding="UTF-8" standalone="no"?><!-- Generator: Gravit.io --><svg xmlns="http://www.w3.org/2000/svg" xmlns:xlink="http://www.w3.org/1999/xlink" style="isolation:isolate" viewBox="0 0 1000 1000" width="1000pt" height="1000pt"><defs><clipPath id="_clipPath_XtsFnNLzYWywnpS9b1Q6zNvrjg278eS8"><rect width="1000" height="1000"/></clipPath></defs><g clip-path="url(#_clipPath_XtsFnNLzYWywnpS9b1Q6zNvrjg278eS8)"><path d=" M 125 187.5 L 0 187.5 C 0 429.102 195.898 625 437.5 625 L 437.5 906.25 C 437.5 923.438 451.563 937.5 468.75 937.5 L 531.25 937.5 C 548.438 937.5 562.5 923.438 562.5 906.25 L 562.5 625 C 562.5 383.398 366.602 187.5 125 187.5 Z  M 875 62.5 C 710.547 62.5 567.578 153.32 492.773 287.5 C 546.875 346.484 586.914 418.164 608.008 497.656 C 828.125 474.805 1000 288.867 1000 62.5 L 875 62.5 L 875 62.5 Z " fill="rgb(77,28,102)"/></g></svg>